<svg width="48" height="48" viewBox="0 0 48 48" fill="none" xmlns="http://www.w3.org/2000/svg">
  <!-- 阴影效果 -->
  <path d="M24 44C24 44 40 32 40 20C40 11.1634 32.8366 4 24 4C15.1634 4 8 11.1634 8 20C8 32 24 44 24 44Z" fill="#007AFF" fill-opacity="0.2"/>
  <!-- 主体形状 -->
  <path d="M24 40C24 40 38 29 38 19C38 11.268 31.732 5 24 5C16.268 5 10 11.268 10 19C10 29 24 40 24 40Z" fill="#007AFF"/>
  <!-- 白色背景圆 -->
  <circle cx="24" cy="19" r="10" fill="white"/>
  <!-- 摩托车图标 -->
  <path d="M29 21H27L25 17H21M29 21L27 17M29 21C30.1046 21 31 21.8954 31 23C31 24.1046 30.1046 25 29 25C27.8954 25 27 24.1046 27 23C27 21.8954 27.8954 21 29 21ZM27 17H24M21 17H19C18.4477 17 18 17.4477 18 18V21M21 17L22 19M18 21H22M18 21C16.8954 21 16 21.8954 16 23C16 24.1046 16.8954 25 18 25C19.1046 25 20 24.1046 20 23C20 21.8954 19.1046 21 18 21Z" 
    stroke="#007AFF" 
    stroke-width="1.5" 
    stroke-linecap="round" 
    stroke-linejoin="round"/>
</svg> 